<svg width="36" height="36" viewBox="0 0 36 36" fill="none" xmlns="http://www.w3.org/2000/svg">
<circle cx="17.8602" cy="17.6641" r="17" stroke="#0098D8"/>
<path d="M28 8.79365C28 8.35595 27.644 8 27.2063 8H8.79365C8.35595 8 8 8.35595 8 8.79365V27.2063C8 27.644 8.35595 28 8.79365 28H27.2063C27.644 28 28 27.644 28 27.2063V8.79365ZM19.5575 8.87302L19.5313 9.05437C19.423 9.81071 18.7643 10.381 18 10.381C17.2357 10.381 16.577 9.81071 16.4683 9.05437L16.4425 8.87302H19.5575ZM14.1905 24.5873V27.127H8.87302V8.87302H15.5762L15.5873 9.01944C15.6679 10.0726 16.4131 10.944 17.4413 11.1881L17.5635 11.2171V12.7619H13.4365C12.5393 12.7619 11.8095 13.4917 11.8095 14.3889V17.6825C11.8095 17.9234 12.0052 18.119 12.246 18.119C12.4869 18.119 12.6825 17.9234 12.6825 17.6825V14.3889C12.6825 13.973 13.0206 13.6349 13.4365 13.6349H17.5349L17.4667 13.8433C17.2036 14.6444 16.4611 15.1825 15.619 15.1825H14.627C14.3861 15.1825 14.1905 15.3782 14.1905 15.619C14.1905 15.8599 14.3861 16.0556 14.627 16.0556H15.619C16.2337 16.0556 16.8183 15.8603 17.3095 15.4905L17.5635 15.2992V15.6175C17.5635 16.6913 16.6913 17.5635 15.619 17.5635H14.627C14.3861 17.5635 14.1905 17.7591 14.1905 18C14.1905 18.2409 14.3861 18.4365 14.627 18.4365H15.619C16.2337 18.4365 16.8183 18.2413 17.3095 17.8714L17.5635 17.6802V17.9984C17.5635 19.0722 16.6913 19.9444 15.619 19.9444H14.627C14.3861 19.9444 14.1905 20.1401 14.1905 20.381C14.1905 20.6218 14.3861 20.8175 14.627 20.8175H15.619C16.2337 20.8175 16.8183 20.6222 17.3095 20.2524L17.5635 20.0611V22.9603H15.8175C14.9202 22.9603 14.1905 23.6901 14.1905 24.5873ZM20.9365 27.127H15.0635V24.5873C15.0635 24.1714 15.4016 23.8333 15.8175 23.8333H17.5635V24.1905C17.5635 24.4313 17.7591 24.627 18 24.627C18.2409 24.627 18.4365 24.4313 18.4365 24.1905V23.8333H20.1825C20.5984 23.8333 20.9365 24.1714 20.9365 24.5873V27.127ZM27.127 27.127H21.8095V24.5873C21.8095 23.6901 21.0798 22.9603 20.1825 22.9603H18.4365V20.0615L18.6909 20.2528C19.1817 20.6222 19.7663 20.8175 20.381 20.8175H21.373C21.6139 20.8175 21.8095 20.6218 21.8095 20.381C21.8095 20.1401 21.6139 19.9444 21.373 19.9444H20.381C19.3087 19.9444 18.4365 19.0722 18.4365 18V17.6817L18.6909 17.8714C19.1817 18.2413 19.7663 18.4365 20.381 18.4365H21.373C21.6139 18.4365 21.8095 18.2409 21.8095 18C21.8095 17.7591 21.6139 17.5635 21.373 17.5635H20.381C19.3087 17.5635 18.4365 16.6913 18.4365 15.619V15.3008L18.6909 15.4905C19.1817 15.8603 19.7663 16.0556 20.381 16.0556H21.373C21.6139 16.0556 21.8095 15.8599 21.8095 15.619C21.8095 15.3782 21.6139 15.1825 21.373 15.1825H20.381C19.5389 15.1825 18.7964 14.6444 18.5333 13.8433L18.4651 13.6349H22.5635C22.9794 13.6349 23.3175 13.973 23.3175 14.3889V17.6825C23.3175 17.9234 23.5131 18.119 23.754 18.119C23.9948 18.119 24.1905 17.9234 24.1905 17.6825V14.3889C24.1905 13.4917 23.4607 12.7619 22.5635 12.7619H18.4365V11.2171L18.5587 11.1881C19.5873 10.944 20.3321 10.0726 20.4127 9.01944L20.4238 8.87302H27.127V27.127Z" fill="#0098D8"/>
<path d="M24.1905 20.0635C24.1905 19.8226 23.9949 19.627 23.754 19.627C23.5131 19.627 23.3175 19.8226 23.3175 20.0635V22.4444C23.3175 22.6853 23.5131 22.8809 23.754 22.8809C23.9949 22.8809 24.1905 22.6853 24.1905 22.4444V20.0635Z" fill="#0098D8"/>
<path d="M12.6826 20.0635C12.6826 19.8226 12.487 19.627 12.2461 19.627C12.0052 19.627 11.8096 19.8226 11.8096 20.0635V22.4444C11.8096 22.6853 12.0052 22.8809 12.2461 22.8809C12.487 22.8809 12.6826 22.6853 12.6826 22.4444V20.0635Z" fill="#0098D8"/>
</svg>
