<svg width="30" height="30" viewBox="0 0 30 30" fill="none" xmlns="http://www.w3.org/2000/svg">
<path d="M16.7297 7.67761H14.6967V8.9482H16.0944V11.3411C16.0944 13.4429 14.3843 15.153 12.2826 15.153C10.1808 15.153 8.47079 13.443 8.47079 11.3412V8.9482H9.8261V7.67761H7.83549C7.48459 7.67761 7.2002 7.96201 7.2002 8.31291V11.3412C7.2002 14.1437 9.48006 16.4236 12.2826 16.4236C15.0851 16.4236 17.365 14.1437 17.365 11.3412V8.31291C17.365 7.96201 17.0806 7.67761 16.7297 7.67761Z" fill="#0098D8"/>
<path d="M19.2076 16.953V19.9601C19.2076 21.7116 17.7826 23.1366 16.0311 23.1366C14.2796 23.1366 12.8546 21.7116 12.8546 19.9601V15.8094H11.584V19.9601C11.584 22.4121 13.5788 24.4072 16.0311 24.4072C18.4831 24.4072 20.4782 22.4121 20.4782 19.9601V16.953H19.2076Z" fill="#0098D8"/>
<path d="M19.844 12.845C18.5476 12.845 17.4932 13.8994 17.4932 15.1956C17.4932 16.4916 18.5476 17.5462 19.8438 17.5462C21.14 17.5462 22.1944 16.4916 22.1946 15.1956C22.1946 13.8994 21.14 12.845 19.844 12.845ZM19.8438 16.2756C19.2481 16.2756 18.7636 15.7911 18.7636 15.1956C18.7636 14.6001 19.2481 14.1156 19.8438 14.1156C20.4393 14.1156 20.9238 14.6001 20.9238 15.1956C20.9238 15.7911 20.4393 16.2756 19.8438 16.2756Z" fill="#0098D8"/>
<path d="M9.80522 7C9.45432 7 9.16992 7.2844 9.16992 7.6353V8.99061C9.16992 9.34151 9.45432 9.6259 9.80522 9.6259C10.1561 9.6259 10.4405 9.34151 10.4405 8.99061V7.6353C10.4405 7.2844 10.1561 7 9.80522 7Z" fill="#0098D8"/>
<path d="M14.7183 7C14.3674 7 14.083 7.2844 14.083 7.6353V8.99061C14.083 9.34151 14.3674 9.6259 14.7183 9.6259C15.0692 9.6259 15.3536 9.34151 15.3536 8.99061V7.6353C15.3536 7.2844 15.0692 7 14.7183 7Z" fill="#0098D8"/>
<rect x="0.5" y="0.5" width="29" height="29" rx="14.5" stroke="#0098D8"/>
</svg>
