<svg width="36" height="36" viewBox="0 0 36 36" fill="none" xmlns="http://www.w3.org/2000/svg">
<circle cx="17.8604" cy="17.6641" r="17" stroke="#33ADE0"/>
<mask id="path-2-inside-1" fill="white">
<path d="M27.5223 11.9512L26.5603 10.9892C26.408 10.837 26.1611 10.837 26.0088 10.9892C25.8565 11.1415 25.8565 11.3885 26.0088 11.5408L26.9708 12.5027C27.1533 12.6853 27.1533 12.9823 26.9708 13.1649C26.7883 13.3474 26.4912 13.3475 26.3086 13.1649L25.1502 12.0065C25.1502 12.0065 25.1502 12.0064 25.1502 12.0064L23.6055 10.4618C23.6054 10.4617 23.6054 10.4617 23.6054 10.4616L22.447 9.30327C22.2644 9.12072 22.2644 8.82372 22.447 8.64113C22.6295 8.45851 22.9266 8.45859 23.1091 8.64113L23.8957 9.42771C24.048 9.57996 24.2949 9.57996 24.4472 9.42771C24.5995 9.27543 24.5995 9.02849 24.4472 8.87617L23.6607 8.08959C23.1741 7.60295 22.3822 7.60295 21.8955 8.08959C21.4089 8.57624 21.4089 9.36808 21.8955 9.85477L22.7783 10.7375L21.249 12.2668L20.3111 11.3289L19.8652 10.8829C19.7129 10.7307 19.466 10.7307 19.3137 10.8829C19.1614 11.0352 19.1614 11.2821 19.3137 11.4345L19.4838 11.6046L12.9364 18.152C12.0022 19.0862 11.7679 20.4591 12.2332 21.6135L10.7125 23.1342C10.4768 23.37 10.3469 23.6834 10.3469 24.0168C10.3469 24.2157 10.3935 24.4072 10.4807 24.5796L8.03487 27.0255C7.88258 27.1778 7.88258 27.4247 8.03487 27.577C8.11103 27.6531 8.21082 27.6912 8.31062 27.6912C8.41041 27.6912 8.51025 27.6531 8.58637 27.577L11.0322 25.1312C11.2046 25.2185 11.3962 25.265 11.5951 25.265C11.9284 25.265 12.2419 25.1352 12.4776 24.8994L13.9984 23.3787C14.3822 23.5334 14.7901 23.6108 15.1981 23.6108C16.0172 23.6108 16.8363 23.2991 17.4599 22.6755L24.0073 16.1282L24.1774 16.2983C24.2536 16.3744 24.3534 16.4125 24.4532 16.4125C24.553 16.4125 24.6528 16.3744 24.7289 16.2983C24.8812 16.146 24.8812 15.8991 24.7289 15.7468L24.2832 15.3011C24.2831 15.301 24.2831 15.3009 24.283 15.3009L23.3451 14.363L24.8744 12.8337L25.7571 13.7165C25.9928 13.9522 26.3063 14.082 26.6397 14.082C26.9731 14.082 27.2865 13.9522 27.5223 13.7165C28.0089 13.2297 28.0089 12.4379 27.5223 11.9512ZM11.9261 24.3479C11.8377 24.4363 11.7202 24.485 11.5951 24.485C11.47 24.485 11.3525 24.4363 11.264 24.3479C11.0815 24.1653 11.0815 23.8683 11.264 23.6858L12.6298 22.32C12.722 22.444 12.8239 22.5631 12.9364 22.6755C13.0489 22.788 13.1679 22.8899 13.2919 22.9821L11.9261 24.3479ZM23.4557 15.5766L22.3431 16.6892L21.5799 15.926C21.4276 15.7737 21.1807 15.7737 21.0284 15.926C20.8761 16.0783 20.8761 16.3252 21.0284 16.4775L21.7916 17.2407L20.5043 18.528L19.741 17.7648C19.5888 17.6126 19.3418 17.6126 19.1895 17.7648C19.0372 17.9171 19.0372 18.164 19.1895 18.3164L19.9527 19.0796L18.6654 20.3669L17.9022 19.6037C17.7499 19.4515 17.503 19.4515 17.3506 19.6037C17.1983 19.756 17.1983 20.0029 17.3506 20.1552L18.1138 20.9185L16.9084 22.1239C16.8809 22.1514 16.8529 22.1779 16.8244 22.2037L16.0633 21.4426C15.911 21.2904 15.6641 21.2904 15.5117 21.4426C15.3595 21.5949 15.3595 21.8418 15.5117 21.9942L16.1528 22.6352C15.2703 23.0132 14.2072 22.8432 13.4879 22.124C12.5448 21.181 12.5448 19.6466 13.4879 18.7035L20.0352 12.1562L23.4557 15.5766ZM22.7936 13.8114L21.8005 12.8183L23.3297 11.289L24.3229 12.2822L22.7936 13.8114Z"/>
</mask>
<path d="M27.5223 11.9512L28.2294 11.2441L28.2294 11.2441L27.5223 11.9512ZM26.5603 10.9892L27.2674 10.2821L27.2673 10.282L26.5603 10.9892ZM26.0088 10.9892L25.3018 10.282L25.3017 10.2821L26.0088 10.9892ZM26.0088 11.5408L25.3016 12.2478L25.3017 12.2479L26.0088 11.5408ZM26.9708 12.5027L26.2637 13.2098L26.2637 13.2098L26.9708 12.5027ZM26.9708 13.1649L26.2637 12.4578L26.2635 12.4579L26.9708 13.1649ZM26.3086 13.1649L27.0159 12.4579L27.0157 12.4577L26.3086 13.1649ZM25.1502 12.0065L25.8573 11.2994L25.5644 11.0065H25.1502V12.0065ZM25.1502 12.0064L26.1501 11.9994L26.1472 11.5893L25.8573 11.2993L25.1502 12.0064ZM23.6055 10.4618L24.3126 9.75466L24.3126 9.75466L23.6055 10.4618ZM23.6054 10.4616L24.3125 9.75454L24.3125 9.75454L23.6054 10.4616ZM22.447 9.30327L21.7399 10.0104L21.7399 10.0104L22.447 9.30327ZM22.447 8.64113L23.1542 9.34817L23.1543 9.34809L22.447 8.64113ZM23.1091 8.64113L23.8162 7.93403L23.8162 7.93403L23.1091 8.64113ZM23.8957 9.42771L23.1886 10.1348L23.1887 10.1349L23.8957 9.42771ZM24.4472 9.42771L25.1542 10.135L25.1544 10.1348L24.4472 9.42771ZM24.4472 8.87617L25.1544 8.16915L25.1544 8.16908L24.4472 8.87617ZM23.6607 8.08959L24.3678 7.38251L24.3678 7.38249L23.6607 8.08959ZM21.8955 9.85477L21.1884 10.5618L21.1884 10.5619L21.8955 9.85477ZM22.7783 10.7375L23.4854 11.4446L24.1925 10.7375L23.4854 10.0304L22.7783 10.7375ZM21.249 12.2668L20.5419 12.9739L21.249 13.681L21.9561 12.9739L21.249 12.2668ZM20.3111 11.3289L19.604 12.036L19.604 12.036L20.3111 11.3289ZM19.8652 10.8829L20.5723 10.1758L20.5722 10.1757L19.8652 10.8829ZM19.3137 10.8829L18.6067 10.1756L18.6066 10.1758L19.3137 10.8829ZM19.3137 11.4345L18.6065 12.1415L18.6066 12.1416L19.3137 11.4345ZM19.4838 11.6046L20.1909 12.3117L20.898 11.6046L20.1909 10.8975L19.4838 11.6046ZM12.9364 18.152L12.2293 17.4449L12.2293 17.4449L12.9364 18.152ZM12.2332 21.6135L12.9403 22.3206L13.4079 21.853L13.1607 21.2397L12.2332 21.6135ZM10.4807 24.5796L11.1878 25.2868L11.7002 24.7744L11.3729 24.128L10.4807 24.5796ZM8.03487 27.0255L7.32777 26.3184L7.32776 26.3184L8.03487 27.0255ZM8.03487 27.577L7.32767 28.284L7.32794 28.2843L8.03487 27.577ZM8.58637 27.577L7.87927 26.8699L7.87926 26.8699L8.58637 27.577ZM11.0322 25.1312L11.4839 24.239L10.8375 23.9118L10.3251 24.4241L11.0322 25.1312ZM12.4776 24.8994L13.1847 25.6066L13.1847 25.6065L12.4776 24.8994ZM13.9984 23.3787L14.3722 22.4512L13.7589 22.204L13.2913 22.6716L13.9984 23.3787ZM17.4599 22.6755L18.1669 23.3827L18.167 23.3826L17.4599 22.6755ZM24.0073 16.1282L24.7144 15.421L24.0073 14.7139L23.3002 15.421L24.0073 16.1282ZM24.1774 16.2983L23.4703 17.0054L23.4705 17.0056L24.1774 16.2983ZM24.7289 16.2983L24.0218 15.5912L24.7289 16.2983ZM24.7289 15.7468L25.4361 15.0397L25.436 15.0397L24.7289 15.7468ZM24.2832 15.3011L24.9903 14.594L24.9903 14.5939L24.2832 15.3011ZM24.283 15.3009L23.5759 16.008L24.283 15.3009ZM23.3451 14.363L22.638 13.6559L21.9309 14.363L22.638 15.0701L23.3451 14.363ZM24.8744 12.8337L25.5815 12.1266L24.8744 11.4195L24.1673 12.1266L24.8744 12.8337ZM25.7571 13.7165L25.05 14.4236L25.05 14.4236L25.7571 13.7165ZM27.5223 13.7165L28.2293 14.4237L28.2295 14.4235L27.5223 13.7165ZM11.9261 24.3479L11.219 23.6408L11.2189 23.6409L11.9261 24.3479ZM11.264 24.3479L11.9711 23.6408L11.264 24.3479ZM11.264 23.6858L11.9711 24.3929L11.9711 24.3929L11.264 23.6858ZM12.6298 22.32L13.4324 21.7235L12.7416 20.794L11.9227 21.6129L12.6298 22.32ZM13.2919 22.9821L13.999 23.6892L14.8181 22.8701L13.8882 22.1793L13.2919 22.9821ZM23.4557 15.5766L24.1628 16.2837L24.8699 15.5766L24.1628 14.8695L23.4557 15.5766ZM22.3431 16.6892L21.636 17.3963L22.3431 18.1034L23.0502 17.3963L22.3431 16.6892ZM21.5799 15.926L22.287 15.2189L22.2869 15.2188L21.5799 15.926ZM21.0284 15.926L20.3214 15.2188L20.3213 15.2189L21.0284 15.926ZM21.0284 16.4775L20.3212 17.1845L20.3213 17.1847L21.0284 16.4775ZM21.7916 17.2407L22.4987 17.9478L23.2058 17.2407L22.4987 16.5336L21.7916 17.2407ZM20.5043 18.528L19.7972 19.2352L20.5043 19.9423L21.2114 19.2352L20.5043 18.528ZM19.741 17.7648L20.4482 17.0577L20.4481 17.0576L19.741 17.7648ZM19.1895 17.7648L18.4826 17.0575L18.4824 17.0577L19.1895 17.7648ZM19.1895 18.3164L18.4823 19.0234L18.4824 19.0235L19.1895 18.3164ZM19.9527 19.0796L20.6598 19.7867L21.3669 19.0796L20.6598 18.3725L19.9527 19.0796ZM18.6654 20.3669L17.9583 21.074L18.6654 21.7811L19.3725 21.074L18.6654 20.3669ZM17.9022 19.6037L18.6093 18.8966L18.6092 18.8965L17.9022 19.6037ZM17.3506 19.6037L16.6437 18.8964L16.6435 18.8966L17.3506 19.6037ZM17.3506 20.1552L16.6434 20.8623L16.6435 20.8624L17.3506 20.1552ZM18.1138 20.9185L18.821 21.6256L19.5281 20.9185L18.821 20.2114L18.1138 20.9185ZM16.8244 22.2037L16.1174 22.9108L16.7912 23.5846L17.4967 22.944L16.8244 22.2037ZM16.0633 21.4426L16.7704 20.7355L16.7703 20.7354L16.0633 21.4426ZM15.5117 21.4426L14.8048 20.7353L14.8046 20.7355L15.5117 21.4426ZM15.5117 21.9942L14.8045 22.7012L14.8046 22.7013L15.5117 21.9942ZM16.1528 22.6352L16.5465 23.5545L17.9047 22.9729L16.8599 21.9281L16.1528 22.6352ZM13.4879 22.124L12.7808 22.8311L12.7808 22.8312L13.4879 22.124ZM13.4879 18.7035L12.7808 17.9964L12.7808 17.9964L13.4879 18.7035ZM20.0352 12.1562L20.7424 11.4491L20.0352 10.7419L19.3281 11.4491L20.0352 12.1562ZM22.7936 13.8114L22.0865 14.5185L22.7936 15.2256L23.5007 14.5185L22.7936 13.8114ZM21.8005 12.8183L21.0934 12.1111L20.3863 12.8183L21.0934 13.5254L21.8005 12.8183ZM23.3297 11.289L24.0368 10.5819L23.3297 9.8748L22.6226 10.5819L23.3297 11.289ZM24.3229 12.2822L25.03 12.9893L25.7371 12.2822L25.03 11.5751L24.3229 12.2822ZM28.2294 11.2441L27.2674 10.2821L25.8532 11.6964L26.8152 12.6583L28.2294 11.2441ZM27.2673 10.282C26.7245 9.73939 25.8446 9.73939 25.3018 10.282L26.7158 11.6964C26.4776 11.9346 26.0915 11.9346 25.8533 11.6964L27.2673 10.282ZM25.3017 10.2821C24.7588 10.825 24.759 11.705 25.3016 12.2478L26.716 10.8338C26.9541 11.0719 26.9542 11.4581 26.7159 11.6963L25.3017 10.2821ZM25.3017 12.2479L26.2637 13.2098L27.6779 11.7956L26.7159 10.8337L25.3017 12.2479ZM26.2637 13.2098C26.0557 13.0019 26.0557 12.6657 26.2637 12.4578L27.6779 13.872C28.2509 13.2989 28.2509 12.3687 27.6779 11.7956L26.2637 13.2098ZM26.2635 12.4579C26.4714 12.2499 26.8077 12.2497 27.0159 12.4579L25.6014 13.8718C26.1747 14.4454 27.1052 14.4449 27.678 13.8718L26.2635 12.4579ZM27.0157 12.4577L25.8573 11.2994L24.4431 12.7136L25.6015 13.872L27.0157 12.4577ZM25.1502 11.0065C25.3251 11.0065 25.5219 11.0531 25.7029 11.1731C25.8776 11.289 25.9823 11.4364 26.042 11.554C26.0997 11.6678 26.124 11.7698 26.1354 11.8352C26.1415 11.8702 26.145 11.9016 26.1471 11.9281C26.1482 11.9416 26.1489 11.9543 26.1494 11.966C26.1496 11.972 26.1498 11.9777 26.1499 11.9832C26.15 11.986 26.15 11.9887 26.1501 11.9914C26.1501 11.9928 26.1501 11.9941 26.1501 11.9954C26.1501 11.9961 26.1501 11.9967 26.1501 11.9974C26.1501 11.9977 26.1501 11.9982 26.1501 11.9984C26.1501 11.9989 26.1501 11.9994 25.1502 12.0064C24.1502 12.0135 24.1502 12.014 24.1502 12.0145C24.1502 12.0147 24.1502 12.0152 24.1502 12.0155C24.1502 12.0161 24.1502 12.0168 24.1502 12.0175C24.1502 12.0188 24.1503 12.0201 24.1503 12.0215C24.1503 12.0242 24.1504 12.0269 24.1504 12.0297C24.1506 12.0352 24.1507 12.0409 24.151 12.0468C24.1515 12.0586 24.1522 12.0713 24.1532 12.0848C24.1553 12.1113 24.1589 12.1427 24.1649 12.1777C24.1763 12.2431 24.2006 12.3451 24.2584 12.4589C24.3181 12.5766 24.4228 12.724 24.5975 12.8399C24.7785 12.9599 24.9753 13.0065 25.1502 13.0065V11.0065ZM25.8573 11.2993L24.3126 9.75466L22.8984 11.1689L24.4431 12.7136L25.8573 11.2993ZM24.3126 9.75466L24.3125 9.75454L22.8983 11.1688L22.8984 11.1689L24.3126 9.75466ZM24.3125 9.75454L23.1541 8.59616L21.7399 10.0104L22.8983 11.1688L24.3125 9.75454ZM23.1541 8.59616C23.3621 8.80418 23.362 9.14029 23.1542 9.34817L21.7398 7.9341C21.1669 8.50715 21.1668 9.43726 21.7399 10.0104L23.1541 8.59616ZM23.1543 9.34809C22.946 9.55638 22.6098 9.55603 22.402 9.34824L23.8162 7.93403C23.2434 7.36115 22.313 7.36064 21.7397 7.93418L23.1543 9.34809ZM22.402 9.34824L23.1886 10.1348L24.6028 8.7206L23.8162 7.93403L22.402 9.34824ZM23.1887 10.1349C23.7315 10.6776 24.6114 10.6775 25.1542 10.135L23.7403 8.72042C23.9784 8.48243 24.3645 8.4823 24.6027 8.72051L23.1887 10.1349ZM25.1544 10.1348C25.6972 9.59196 25.6971 8.71193 25.1544 8.16915L23.74 9.58319C23.502 9.34506 23.5018 8.95889 23.7401 8.7206L25.1544 10.1348ZM25.1544 8.16908L24.3678 7.38251L22.9536 8.79668L23.7401 9.58326L25.1544 8.16908ZM24.3678 7.38249C23.4906 6.50532 22.0656 6.50532 21.1884 7.38249L22.6026 8.7967C22.6988 8.70058 22.8575 8.70058 22.9536 8.7967L24.3678 7.38249ZM21.1884 7.38249C20.3112 8.25968 20.3113 9.68466 21.1884 10.5618L22.6027 9.14769C22.5065 9.05151 22.5065 8.89281 22.6026 8.7967L21.1884 7.38249ZM21.1884 10.5619L22.0712 11.4446L23.4854 10.0304L22.6026 9.14766L21.1884 10.5619ZM22.0712 10.0304L20.5419 11.5596L21.9561 12.9739L23.4854 11.4446L22.0712 10.0304ZM21.9561 11.5596L21.0183 10.6218L19.604 12.036L20.5419 12.9739L21.9561 11.5596ZM21.0183 10.6218L20.5723 10.1758L19.1581 11.59L19.604 12.036L21.0183 10.6218ZM20.5722 10.1757C20.0294 9.63304 19.1495 9.63317 18.6067 10.1756L20.0206 11.5902C19.7825 11.8282 19.3965 11.8283 19.1582 11.5901L20.5722 10.1757ZM18.6066 10.1758C18.0637 10.7187 18.0638 11.5987 18.6065 12.1415L20.0209 10.7275C20.2589 10.9656 20.2591 11.3518 20.0208 11.59L18.6066 10.1758ZM18.6066 12.1416L18.7767 12.3117L20.1909 10.8975L20.0208 10.7274L18.6066 12.1416ZM18.7767 10.8975L12.2293 17.4449L13.6435 18.8591L20.1909 12.3117L18.7767 10.8975ZM12.2293 17.4449C11.0008 18.6734 10.6963 20.4754 11.3057 21.9873L13.1607 21.2397C12.8395 20.4429 13.0036 19.499 13.6435 18.8591L12.2293 17.4449ZM11.5261 20.9064L10.0054 22.4271L11.4196 23.8413L12.9403 22.3206L11.5261 20.9064ZM10.0054 22.4271C9.58208 22.8504 9.34694 23.4182 9.34694 24.0168H11.3469C11.3469 23.9486 11.3714 23.8895 11.4196 23.8413L10.0054 22.4271ZM9.34694 24.0168C9.34694 24.3731 9.4306 24.7193 9.58854 25.0313L11.3729 24.128C11.3563 24.0952 11.3469 24.0583 11.3469 24.0168H9.34694ZM9.77364 23.8725L7.32777 26.3184L8.74197 27.7326L11.1878 25.2868L9.77364 23.8725ZM7.32776 26.3184C6.7849 26.8612 6.78503 27.7413 7.32767 28.284L8.74206 26.87C8.98013 27.1081 8.98026 27.4943 8.74197 27.7326L7.32776 26.3184ZM7.32794 28.2843C7.59895 28.5552 7.95623 28.6912 8.31062 28.6912V26.6912C8.46542 26.6912 8.62311 26.7511 8.74179 26.8697L7.32794 28.2843ZM8.31062 28.6912C8.66485 28.6912 9.02233 28.5553 9.29347 28.2841L7.87926 26.8699C7.99816 26.751 8.15597 26.6912 8.31062 26.6912V28.6912ZM9.29347 28.2841L11.7393 25.8383L10.3251 24.4241L7.87927 26.8699L9.29347 28.2841ZM10.5806 26.0234C10.8926 26.1813 11.2388 26.265 11.5951 26.265V24.265C11.5536 24.265 11.5167 24.2556 11.4839 24.239L10.5806 26.0234ZM11.5951 26.265C12.1937 26.265 12.7614 26.0298 13.1847 25.6066L11.7706 24.1923C11.7223 24.2405 11.6632 24.265 11.5951 24.265V26.265ZM13.1847 25.6065L14.7055 24.0858L13.2913 22.6716L11.7705 24.1923L13.1847 25.6065ZM13.6245 24.3062C14.1288 24.5094 14.6638 24.6108 15.1981 24.6108V22.6108C14.9164 22.6108 14.6355 22.5573 14.3722 22.4512L13.6245 24.3062ZM15.1981 24.6108C16.2707 24.6108 17.3477 24.2018 18.1669 23.3827L16.7528 21.9684C16.3249 22.3963 15.7638 22.6108 15.1981 22.6108V24.6108ZM18.167 23.3826L24.7144 16.8353L23.3002 15.421L16.7528 21.9684L18.167 23.3826ZM23.3002 16.8353L23.4703 17.0054L24.8845 15.5912L24.7144 15.421L23.3002 16.8353ZM23.4705 17.0056C23.7415 17.2765 24.0988 17.4125 24.4532 17.4125V15.4125C24.608 15.4125 24.7657 15.4724 24.8843 15.591L23.4705 17.0056ZM24.4532 17.4125C24.8074 17.4125 25.1649 17.2765 25.436 17.0054L24.0218 15.5912C24.1407 15.4723 24.2985 15.4125 24.4532 15.4125V17.4125ZM25.436 17.0054C25.9789 16.4625 25.9788 15.5825 25.4361 15.0397L24.0217 16.4538C23.7837 16.2156 23.7835 15.8295 24.0218 15.5912L25.436 17.0054ZM25.436 15.0397L24.9903 14.594L23.5761 16.0082L24.0218 16.4539L25.436 15.0397ZM24.9903 14.5939C24.9899 14.5935 24.9906 14.5942 24.9902 14.5939C24.9901 14.5937 24.9903 14.5939 24.9901 14.5938L23.5759 16.008C23.5759 16.008 23.576 16.0081 23.576 16.0081C23.5765 16.0086 23.5756 16.0076 23.5761 16.0082L24.9903 14.5939ZM24.9901 14.5938L24.0522 13.6559L22.638 15.0701L23.5759 16.008L24.9901 14.5938ZM24.0522 15.0701L25.5815 13.5408L24.1673 12.1266L22.638 13.6559L24.0522 15.0701ZM24.1673 13.5408L25.05 14.4236L26.4642 13.0094L25.5815 12.1266L24.1673 13.5408ZM25.05 14.4236C25.4733 14.8469 26.0411 15.082 26.6397 15.082V13.082C26.5715 13.082 26.5124 13.0575 26.4642 13.0094L25.05 14.4236ZM26.6397 15.082C27.2383 15.082 27.806 14.8468 28.2293 14.4237L26.8153 13.0093C26.767 13.0576 26.7078 13.082 26.6397 13.082V15.082ZM28.2295 14.4235C29.1065 13.5463 29.1066 12.1213 28.2294 11.2441L26.8152 12.6583C26.9113 12.7544 26.9114 12.9132 26.8151 13.0095L28.2295 14.4235ZM11.2189 23.6409C11.3181 23.5417 11.4549 23.485 11.5951 23.485V25.485C11.9854 25.485 12.3574 25.331 12.6334 25.0548L11.2189 23.6409ZM11.5951 23.485C11.7354 23.485 11.8722 23.5418 11.9711 23.6408L10.5569 25.055C10.8328 25.3309 11.2047 25.485 11.5951 25.485V23.485ZM11.9711 23.6408C12.1791 23.8488 12.1791 24.1849 11.9711 24.3929L10.5569 22.9786C9.98386 23.5517 9.98386 24.4819 10.5569 25.055L11.9711 23.6408ZM11.9711 24.3929L13.3369 23.0271L11.9227 21.6129L10.5569 22.9786L11.9711 24.3929ZM11.8272 22.9165C11.9473 23.0781 12.0809 23.2343 12.2293 23.3826L13.6435 21.9684C13.5669 21.8918 13.4967 21.81 13.4324 21.7235L11.8272 22.9165ZM12.2293 23.3826C12.3776 23.5309 12.5338 23.6646 12.6956 23.7848L13.8882 22.1793C13.8019 22.1152 13.7202 22.0451 13.6435 21.9684L12.2293 23.3826ZM12.5848 22.275L11.219 23.6408L12.6333 25.055L13.999 23.6892L12.5848 22.275ZM22.7485 14.8695L21.636 15.9821L23.0502 17.3963L24.1628 16.2837L22.7485 14.8695ZM23.0502 15.9821L22.287 15.2189L20.8728 16.6331L21.636 17.3963L23.0502 15.9821ZM22.2869 15.2188C21.7441 14.6761 20.8642 14.6761 20.3214 15.2188L21.7354 16.6332C21.4972 16.8713 21.1111 16.8713 20.8729 16.6332L22.2869 15.2188ZM20.3213 15.2189C19.7784 15.7617 19.7786 16.6418 20.3212 17.1845L21.7356 15.7705C21.9737 16.0086 21.9738 16.3948 21.7355 16.6331L20.3213 15.2189ZM20.3213 17.1847L21.0845 17.9478L22.4987 16.5336L21.7355 15.7704L20.3213 17.1847ZM21.0845 16.5336L19.7972 17.8209L21.2114 19.2352L22.4987 17.9478L21.0845 16.5336ZM21.2114 17.8209L20.4482 17.0577L19.0339 18.4719L19.7972 19.2352L21.2114 17.8209ZM20.4481 17.0576C19.9052 16.5149 19.0253 16.5151 18.4826 17.0575L19.8964 18.4721C19.6583 18.7101 19.2723 18.7102 19.034 18.472L20.4481 17.0576ZM18.4824 17.0577C17.9395 17.6006 17.9397 18.4806 18.4823 19.0234L19.8967 17.6094C20.1348 17.8475 20.1349 18.2336 19.8966 18.4719L18.4824 17.0577ZM18.4824 19.0235L19.2456 19.7867L20.6598 18.3725L19.8966 17.6093L18.4824 19.0235ZM19.2456 18.3725L17.9583 19.6598L19.3725 21.074L20.6598 19.7867L19.2456 18.3725ZM19.3725 19.6598L18.6093 18.8966L17.1951 20.3108L17.9583 21.074L19.3725 19.6598ZM18.6092 18.8965C18.0663 18.3538 17.1865 18.3539 16.6437 18.8964L18.0576 20.311C17.8194 20.549 17.4334 20.5491 17.1952 20.3109L18.6092 18.8965ZM16.6435 18.8966C16.1007 19.4395 16.1008 20.3195 16.6434 20.8623L18.0578 19.4482C18.2959 19.6864 18.296 20.0725 18.0577 20.3108L16.6435 18.8966ZM16.6435 20.8624L17.4067 21.6256L18.821 20.2114L18.0577 19.4481L16.6435 20.8624ZM17.4067 20.2114L16.2013 21.4168L17.6155 22.8311L18.821 21.6256L17.4067 20.2114ZM16.2013 21.4168C16.1871 21.431 16.171 21.4463 16.1522 21.4634L17.4967 22.944C17.5347 22.9095 17.5747 22.8718 17.6155 22.8311L16.2013 21.4168ZM17.5315 21.4966L16.7704 20.7355L15.3562 22.1498L16.1174 22.9108L17.5315 21.4966ZM16.7703 20.7354C16.2275 20.1927 15.3476 20.1929 14.8048 20.7353L16.2187 22.1499C15.9806 22.3879 15.5945 22.388 15.3563 22.1498L16.7703 20.7354ZM14.8046 20.7355C14.2618 21.2784 14.2619 22.1584 14.8045 22.7012L16.2189 21.2871C16.457 21.5253 16.4571 21.9114 16.2189 22.1497L14.8046 20.7355ZM14.8046 22.7013L15.4457 23.3423L16.8599 21.9281L16.2189 21.2871L14.8046 22.7013ZM15.7592 21.716C15.238 21.9391 14.6143 21.8361 14.1949 21.4168L12.7808 22.8312C13.8001 23.8503 15.3025 24.0872 16.5465 23.5545L15.7592 21.716ZM14.195 21.4169C13.6425 20.8644 13.6425 19.9631 14.195 19.4106L12.7808 17.9964C11.4472 19.33 11.4472 21.4975 12.7808 22.8311L14.195 21.4169ZM14.195 19.4106L20.7423 12.8633L19.3281 11.4491L12.7808 17.9964L14.195 19.4106ZM19.3281 12.8633L22.7485 16.2837L24.1628 14.8695L20.7424 11.4491L19.3281 12.8633ZM23.5007 13.1043L22.5076 12.1111L21.0934 13.5254L22.0865 14.5185L23.5007 13.1043ZM22.5076 13.5254L24.0368 11.9961L22.6226 10.5819L21.0934 12.1111L22.5076 13.5254ZM22.6226 11.9961L23.6158 12.9893L25.03 11.5751L24.0368 10.5819L22.6226 11.9961ZM23.6158 11.5751L22.0865 13.1043L23.5007 14.5185L25.03 12.9893L23.6158 11.5751Z" fill="#33ADE0" mask="url(#path-2-inside-1)"/>
<path d="M25.3163 10.405C25.286 10.405 25.2595 10.394 25.2384 10.3729C25.2384 10.3728 25.2383 10.3727 25.2382 10.3726C25.2382 10.3726 25.2382 10.3726 25.2382 10.3726C25.2173 10.3515 25.2063 10.3251 25.2063 10.295C25.2063 10.2653 25.2172 10.2388 25.2377 10.2178L25.3145 10.295L25.3151 10.2956L25.3152 10.2957L25.3154 10.2959L25.3163 10.2967L25.3928 10.3737C25.3728 10.3937 25.3465 10.405 25.3163 10.405ZM25.3158 10.2949L25.2382 10.2174C25.2383 10.2173 25.2384 10.2172 25.2384 10.2172C25.2384 10.2171 25.2385 10.2171 25.2385 10.2171C25.2385 10.2171 25.2385 10.2171 25.2385 10.2171C25.2586 10.197 25.2852 10.1854 25.3163 10.1854C25.3468 10.1854 25.3732 10.1967 25.3936 10.2171C25.3936 10.2171 25.3936 10.2171 25.3936 10.2171C25.3936 10.2171 25.3937 10.2171 25.3937 10.2171C25.3937 10.2171 25.3937 10.2171 25.3937 10.2172C25.3938 10.2172 25.3938 10.2173 25.3939 10.2174C25.4156 10.2392 25.4263 10.2664 25.4263 10.295C25.4263 10.3238 25.4158 10.3506 25.394 10.3726C25.394 10.3726 25.3939 10.3726 25.3939 10.3726C25.3938 10.3727 25.3938 10.3728 25.3937 10.3729L25.3163 10.2954L25.3161 10.2952L25.3159 10.295L25.3159 10.295L25.3158 10.2949Z" stroke="#33ADE0"/>
<path d="M14.7468 19.0716C14.7468 19.0716 14.7468 19.0716 14.7468 19.0716L14.7468 19.0716ZM17.7599 16.0585L17.7599 16.0585L17.7599 16.0585Z" stroke="#33ADE0"/>
<mask id="path-6-inside-2" fill="white">
<path d="M19.0854 14.8882C19.0129 14.8153 18.9122 14.7739 18.8097 14.7739C18.7071 14.7739 18.6065 14.8153 18.5339 14.8882C18.4614 14.9607 18.4197 15.061 18.4197 15.1639C18.4197 15.2665 18.4614 15.3671 18.5339 15.4396C18.6065 15.5121 18.7071 15.5539 18.8097 15.5539C18.9122 15.5539 19.0129 15.5122 19.0854 15.4396C19.1579 15.3671 19.1997 15.2665 19.1997 15.1639C19.1997 15.0609 19.1579 14.9607 19.0854 14.8882Z"/>
</mask>
<path d="M19.0854 14.8882L18.3764 15.5934L18.3785 15.5955L19.0854 14.8882ZM18.5339 14.8882L19.2409 15.5955L19.2429 15.5934L18.5339 14.8882ZM18.5339 15.4396L19.2411 14.7325L19.2409 14.7323L18.5339 15.4396ZM19.0854 15.4396L18.3785 14.7323L18.3781 14.7327L19.0854 15.4396ZM19.7944 14.183C19.5322 13.9193 19.1755 13.7739 18.8097 13.7739V15.7739C18.6489 15.7739 18.4935 15.7112 18.3764 15.5934L19.7944 14.183ZM18.8097 13.7739C18.4438 13.7739 18.0872 13.9193 17.8249 14.183L19.2429 15.5934C19.1258 15.7112 18.9704 15.7739 18.8097 15.7739V13.7739ZM17.827 14.1809C17.5673 14.4405 17.4197 14.795 17.4197 15.1639H19.4197C19.4197 15.3269 19.3555 15.4809 19.2409 15.5955L17.827 14.1809ZM17.4197 15.1639C17.4197 15.532 17.567 15.887 17.827 16.1469L19.2409 14.7323C19.3558 14.8472 19.4197 15.001 19.4197 15.1639H17.4197ZM17.8268 16.1467C18.0865 16.4063 18.4413 16.5539 18.8097 16.5539V14.5539C18.9729 14.5539 19.1265 14.6179 19.2411 14.7325L17.8268 16.1467ZM18.8097 16.5539C19.1778 16.5539 19.5328 16.4065 19.7927 16.1465L18.3781 14.7327C18.4929 14.6178 18.6466 14.5539 18.8097 14.5539V16.5539ZM19.7923 16.1469C20.0523 15.887 20.1997 15.532 20.1997 15.1639H18.1997C18.1997 15.001 18.2635 14.8472 18.3785 14.7323L19.7923 16.1469ZM20.1997 15.1639C20.1997 14.7949 20.052 14.4405 19.7923 14.1809L18.3785 15.5955C18.2639 15.4809 18.1997 15.3269 18.1997 15.1639H20.1997Z" fill="#33ADE0" mask="url(#path-6-inside-2)"/>
</svg>
