<svg width="30" height="30" viewBox="0 0 30 30" fill="none" xmlns="http://www.w3.org/2000/svg">
<path d="M12.5613 20.186V9.09923C12.5613 8.87845 12.4803 8.66535 12.3336 8.50034C11.8169 7.91899 12.2296 7 13.0074 7H17.4867C18.2622 7 18.6984 7.89194 18.2223 8.5041C18.0951 8.66768 18.026 8.86901 18.026 9.07625V20.3537C18.026 20.6862 17.9644 21.0159 17.8444 21.326C17.0062 23.4913 14.0041 23.6523 12.9392 21.589L12.869 21.4529C12.6668 21.0612 12.5613 20.6268 12.5613 20.186Z" stroke="#0098D8"/>
<path d="M16.0742 11.1841C15.7981 11.1841 15.5742 11.4079 15.5742 11.6841C15.5742 11.9602 15.7981 12.1841 16.0742 12.1841V11.1841ZM18.0259 11.1841H16.0742V12.1841H18.0259V11.1841Z" fill="#0098D8"/>
<path d="M16.0742 14.3066C15.7981 14.3066 15.5742 14.5304 15.5742 14.8066C15.5742 15.0827 15.7981 15.3066 16.0742 15.3066V14.3066ZM18.0259 14.3066H16.0742V15.3066H18.0259V14.3066Z" fill="#0098D8"/>
<path d="M16.0742 17.4293C15.7981 17.4293 15.5742 17.6532 15.5742 17.9293C15.5742 18.2055 15.7981 18.4293 16.0742 18.4293V17.4293ZM18.0259 17.4293H16.0742V18.4293H18.0259V17.4293Z" fill="#0098D8"/>
<rect x="0.5" y="0.5" width="29" height="29" rx="14.5" stroke="#0098D8"/>
</svg>
