<svg width="30" height="30" viewBox="0 0 30 30" fill="none" xmlns="http://www.w3.org/2000/svg">
<path fill-rule="evenodd" clip-rule="evenodd" d="M7.33301 7.65216H22.4997V14.7323C22.4997 19.5625 18.7471 23.4783 14.1181 23.4783L12.5225 23.4782L7.33301 23.4783V7.65216ZM14.921 22.6015C18.4603 22.2128 21.2742 19.2837 21.657 15.5937C21.3606 15.9345 21.0182 16.1791 20.6826 16.3542C20.2376 16.5863 19.7976 16.7003 19.4721 16.7569C19.3084 16.7854 19.1711 16.7998 19.0732 16.8071C19.0242 16.8107 18.9848 16.8126 18.9567 16.8136C18.9427 16.8141 18.9314 16.8143 18.9232 16.8145L18.913 16.8146L18.9097 16.8146C18.9095 16.8146 18.9076 16.8146 18.9076 16.3982V16.8146H16.5128C16.2924 16.8146 16.1137 17.0011 16.1137 17.2311V19.73C16.1137 20.6358 15.8955 21.3429 15.5478 21.8872C15.3643 22.1744 15.1492 22.4093 14.921 22.6015ZM18.9076 15.9817L18.9103 15.9816L18.9301 15.9811C18.9488 15.9804 18.978 15.9791 19.0163 15.9762C19.093 15.9705 19.2052 15.9589 19.3409 15.9353C19.6141 15.8878 19.9722 15.7935 20.3256 15.6092C20.6773 15.4256 21.017 15.1569 21.2696 14.7615C21.5205 14.3688 21.7014 13.8264 21.7014 13.0663V8.48511H8.13125V22.6453L12.5206 22.6453L12.5243 22.6453L12.5442 22.6447C12.5628 22.6441 12.5921 22.6427 12.6304 22.6398C12.7071 22.6341 12.8192 22.6225 12.9549 22.5989C13.2281 22.5514 13.5863 22.4571 13.9396 22.2728C14.2914 22.0893 14.631 21.8205 14.8836 21.4251C15.1345 21.0324 15.3155 20.49 15.3155 19.73V17.2311C15.3155 16.5411 15.8515 15.9817 16.5128 15.9817H18.9076Z" fill="#0098D8"/>
<rect x="0.5" y="0.5" width="29" height="29" rx="14.5" stroke="#0098D8"/>
</svg>
