<svg width="35" height="35" viewBox="0 0 35 35" fill="none" xmlns="http://www.w3.org/2000/svg">
<path d="M25.4302 25.2L20.9406 14.2568C20.6916 13.6497 20.5653 13.0092 20.5653 12.353V9.46036C20.5653 9.14888 20.6866 8.85601 20.9069 8.63572C21.1754 8.36716 21.3235 8.00999 21.3235 7.63015V7.22033C21.3235 6.99129 21.1377 6.80566 20.9088 6.80566H15.1191C14.8901 6.80566 14.7045 6.99129 14.7045 7.22033V7.63015C14.7045 8.00999 14.8524 8.36716 15.1209 8.63572C15.3412 8.85601 15.4625 9.14888 15.4625 9.46053V12.353C15.4625 13.0092 15.3364 13.6497 15.0872 14.2568L13.8536 17.2638C13.8531 17.2649 13.8526 17.266 13.8521 17.2672L10.5976 25.2C10.337 25.8355 10.4097 26.5555 10.7923 27.1258C11.1749 27.6963 11.8133 28.0368 12.5001 28.0368H23.5277C24.2145 28.0368 24.853 27.6963 25.2356 27.1258C25.6181 26.5553 25.6908 25.8355 25.4302 25.2V25.2ZM15.8545 14.5715C16.1448 13.8641 16.2919 13.1177 16.2919 12.353V9.46036C16.2919 8.92745 16.0844 8.42628 15.7075 8.04935C15.5967 7.93856 15.5351 7.79148 15.5338 7.635H20.4941C20.4928 7.79148 20.4313 7.93839 20.3203 8.04935C19.9436 8.42628 19.7359 8.92729 19.7359 9.46036V12.3529C19.7359 13.1176 19.8832 13.864 20.1733 14.5713L21.1745 17.0117H14.8533L15.8545 14.5715ZM24.5467 26.6638C24.3151 27.0093 23.9437 27.2074 23.5277 27.2074H12.5001C12.0843 27.2074 11.7129 27.0093 11.4811 26.6638C11.3063 26.4032 11.2395 26.101 11.2849 25.8029H11.9681C12.197 25.8029 12.3828 25.6171 12.3828 25.3882C12.3828 25.1592 12.197 24.9736 11.9681 24.9736H11.5872L12.0634 23.8125H12.7628C12.9919 23.8125 13.1775 23.6267 13.1775 23.3978C13.1775 23.1688 12.9919 22.9832 12.7628 22.9832H12.4037L12.8799 21.8221H13.5991C13.8282 21.8221 14.0138 21.6363 14.0138 21.4074C14.0138 21.1784 13.8282 20.9927 13.5991 20.9927H13.2202L13.6966 19.8317H14.4353C14.6643 19.8317 14.8499 19.6459 14.8499 19.417C14.8499 19.1879 14.6643 19.0023 14.4353 19.0023H14.0368L14.5132 17.8412H21.5146L24.6629 25.5149C24.8206 25.8996 24.7784 26.3185 24.5467 26.6638V26.6638Z" fill="#0098D8"/>
<path d="M23.3826 25.2259C23.2957 25.0139 23.0537 24.9125 22.8417 24.9991C22.6298 25.0859 22.5283 25.3279 22.6149 25.54L22.6172 25.5451C22.683 25.7057 22.8377 25.8029 23.0011 25.8029C23.0534 25.8029 23.1065 25.793 23.1581 25.7719C23.3699 25.6851 23.4715 25.4429 23.3847 25.2311L23.3826 25.2259Z" fill="#0098D8"/>
<path d="M22.7964 23.7972L21.3113 20.1776C21.2245 19.9657 20.9823 19.8643 20.7703 19.9513C20.5584 20.0381 20.4572 20.2805 20.544 20.4923L22.0291 24.112C22.0948 24.2725 22.2495 24.3693 22.413 24.3693C22.4653 24.3693 22.5186 24.3595 22.5701 24.3382C22.782 24.2514 22.8834 24.0091 22.7964 23.7972V23.7972Z" fill="#0098D8"/>
<rect x="0.5" y="0.5" width="34" height="34" rx="17" stroke="#33ADE0"/>
</svg>
