<svg xmlns="http://www.w3.org/2000/svg" id="iconos" viewBox="0 0 500 343.88"><defs><style>.cls-1{fill:#fff;}.cls-2{fill:#4e3473;}.cls-3{fill:#30b7c0;}</style></defs><path class="cls-3" d="m333.81,150.4h-162.1c-1.45,0-2.62-1.17-2.62-2.62V30.35c0-1.45,1.17-2.62,2.62-2.62h42.23c.68,0,1.34.27,1.83.75,17.53,17.17,51.12,50.08,51.12,50.08l9.31,9.12s41.17,40.33,44.41,43.51c.1.1,5.09,4.98,5.19,5.08l9.84,9.64c1.67,1.64.51,4.49-1.83,4.49Z"></path><path class="cls-2" d="m160.45,89.07h72.58c7.75,0,14.04,6.29,14.04,14.04v47.29h-86.62c-7.75,0-14.04-6.29-14.04-14.04v-33.25c0-7.75,6.29-14.04,14.04-14.04Z"></path><path class="cls-2" d="m279.35,63.71c0,.29,0,.56-.02.84-.41,8.67-7.28,15.75-16.03,16.79v69.06h-4.47v-69.06c-.21-.02-.45-.06-.65-.08-.37-.08-.72-.15-1.09-.23-.35-.06-.66-.15-1.01-.23-3.84-1.07-7.18-3.3-9.51-6.3-2.4-3.01-3.82-6.73-3.82-10.81,0-7.13,4.37-13.31,10.64-16.1.6-.27,1.21-.51,1.85-.72,1.53-.51,3.16-.82,4.86-.92.33-.02.64-.02.96-.02.62,0,1.21.04,1.83.1,8.92.84,15.95,7.91,16.44,16.67.02.33.02.65.02.98Z"></path><rect class="cls-3" x="159.32" y="112.62" width="16.56" height="18.32"></rect><rect class="cls-3" x="183.68" y="112.62" width="16.56" height="18.32"></rect><rect class="cls-3" x="208.05" y="112.62" width="16.56" height="18.32"></rect><path class="cls-2" d="m219.1,53.98h-12.84v-12.84c0-.74-.6-1.33-1.33-1.33h-8.26c-.74,0-1.33.6-1.33,1.33v12.84h-12.84c-.74,0-1.33.6-1.33,1.33v8.26c0,.74.6,1.33,1.33,1.33h12.84v12.84c0,.74.6,1.33,1.33,1.33h8.26c.74,0,1.33-.6,1.33-1.33v-12.84h12.84c.74,0,1.33-.6,1.33-1.33v-8.26c0-.74-.6-1.33-1.33-1.33Z"></path><path class="cls-3" d="m317.25,63.21h17.88c1.49,0,2.7,1.21,2.7,2.7v26.37c0,1.49-1.21,2.7-2.7,2.7h-17.62c-8.99,0-16.4-7.35-16.14-16.34.12-4.2,1.87-8,4.65-10.78,2.88-2.87,6.85-4.65,11.24-4.65Z"></path><path class="cls-2" d="m377.91,79.56c-.12,4.2-1.87,8-4.65,10.78-2.88,2.87-6.85,4.65-11.24,4.65h-17.88c-1.49,0-2.7-1.21-2.7-2.7v-26.37c0-1.49,1.21-2.7,2.7-2.7h17.62c8.99,0,16.4,7.35,16.14,16.34Z"></path><path class="cls-2" d="m78.13,165.46h343.73c6.36,0,11.53,5.17,11.53,11.53v41.41H66.61v-41.41c0-6.36,5.17-11.53,11.53-11.53Z"></path><rect class="cls-2" x="25.7" y="216.26" width="448.59" height="52.93" rx="11.53" ry="11.53"></rect><path class="cls-1" d="m105.06,183.57v6.68h16.25v9.91h-16.25v12.47h-13.14v-38.96h31.67v9.91h-18.54Z"></path><path class="cls-1" d="m152.38,205.83h-14.81l-2.62,6.79h-13.36l17.03-38.96h12.91l17.03,38.96h-13.58l-2.62-6.79Zm-3.62-9.46l-3.79-9.8-3.79,9.8h7.57Z"></path><path class="cls-1" d="m186.84,202.83h-3.56v9.8h-13.14v-38.96h18.76c10.85,0,17.76,5.68,17.76,14.7,0,5.62-2.67,9.85-7.35,12.25l8.18,12.02h-14.03l-6.62-9.8Zm1.22-19.04h-4.79v9.13h4.79c3.62,0,5.34-1.73,5.34-4.56s-1.73-4.56-5.34-4.56Z"></path><path class="cls-1" d="m245.85,212.62l-.11-17.76-8.46,14.25h-5.79l-8.46-13.64v17.14h-11.97v-38.96h10.8l12.69,20.76,12.36-20.76h10.8l.11,38.96h-11.97Z"></path><path class="cls-1" d="m290.16,205.83h-14.81l-2.62,6.79h-13.36l17.03-38.96h12.91l17.03,38.96h-13.58l-2.62-6.79Zm-3.62-9.46l-3.79-9.8-3.79,9.8h7.57Z"></path><path class="cls-1" d="m305.81,193.14c0-11.97,9.18-20.37,21.71-20.37,7.63,0,13.64,2.78,17.48,7.79l-8.29,7.4c-2.28-2.89-5.01-4.56-8.52-4.56-5.46,0-9.13,3.79-9.13,9.74s3.67,9.74,9.13,9.74c3.51,0,6.23-1.67,8.52-4.56l8.29,7.4c-3.84,5.01-9.85,7.79-17.48,7.79-12.52,0-21.71-8.41-21.71-20.37Z"></path><path class="cls-1" d="m348.23,173.66h13.14v38.96h-13.14v-38.96Z"></path><path class="cls-1" d="m393.71,205.83h-14.81l-2.62,6.79h-13.36l17.03-38.96h12.91l17.03,38.96h-13.58l-2.62-6.79Zm-3.62-9.46l-3.79-9.8-3.79,9.8h7.57Z"></path><path class="cls-1" d="m36.23,242.6c0-11.97,9.18-20.37,21.71-20.37,7.63,0,13.64,2.78,17.48,7.79l-8.29,7.4c-2.28-2.89-5.01-4.56-8.52-4.56-5.46,0-9.13,3.79-9.13,9.74s3.67,9.74,9.13,9.74c3.51,0,6.23-1.67,8.52-4.56l8.29,7.4c-3.84,5.01-9.85,7.79-17.48,7.79-12.52,0-21.71-8.41-21.71-20.37Z"></path><path class="cls-1" d="m76.26,242.6c0-11.8,9.3-20.37,21.99-20.37s21.99,8.57,21.99,20.37-9.3,20.37-21.99,20.37-21.99-8.57-21.99-20.37Zm30.73,0c0-6.07-3.9-9.74-8.74-9.74s-8.74,3.67-8.74,9.74,3.9,9.74,8.74,9.74,8.74-3.67,8.74-9.74Z"></path><path class="cls-1" d="m159.26,262.08l-.11-17.76-8.46,14.25h-5.79l-8.46-13.64v17.14h-11.97v-38.96h10.8l12.69,20.76,12.36-20.76h10.8l.11,38.96h-11.97Z"></path><path class="cls-1" d="m176.68,244.55v-21.43h13.14v21.04c0,5.96,2.28,8.18,5.96,8.18s5.96-2.23,5.96-8.18v-21.04h12.91v21.43c0,11.69-7.01,18.42-18.98,18.42s-18.98-6.74-18.98-18.42Z"></path><path class="cls-1" d="m258.51,223.12v38.96h-10.8l-14.81-17.7v17.7h-12.8v-38.96h10.8l14.81,17.7v-17.7h12.8Z"></path><path class="cls-1" d="m264.31,223.12h13.14v38.96h-13.14v-38.96Z"></path><path class="cls-1" d="m291.7,233.3h-11.41v-10.19h35.96v10.19h-11.41v28.78h-13.14v-28.78Z"></path><path class="cls-1" d="m343.69,255.29h-14.81l-2.62,6.79h-13.36l17.03-38.96h12.91l17.03,38.96h-13.58l-2.62-6.79Zm-3.62-9.46l-3.79-9.8-3.79,9.8h7.57Z"></path><path class="cls-1" d="m378.15,252.28h-3.56v9.8h-13.14v-38.96h18.76c10.85,0,17.76,5.68,17.76,14.7,0,5.62-2.67,9.85-7.35,12.25l8.18,12.02h-14.03l-6.62-9.8Zm1.22-19.04h-4.79v9.13h4.79c3.62,0,5.34-1.73,5.34-4.56s-1.73-4.56-5.34-4.56Z"></path><path class="cls-1" d="m402.37,223.12h13.14v38.96h-13.14v-38.96Z"></path><path class="cls-1" d="m447.85,255.29h-14.81l-2.62,6.79h-13.36l17.03-38.96h12.91l17.03,38.96h-13.58l-2.62-6.79Zm-3.62-9.46l-3.79-9.8-3.79,9.8h7.57Z"></path><path class="cls-3" d="m139.89,317.06c-2.1,0-4.24-.33-6.41-1-2.17-.67-3.97-1.55-5.4-2.63-.03-1.72.33-3.13,1.08-4.23.75-1.1,1.78-1.67,3.08-1.7,1.98,1.56,4.22,2.34,6.74,2.34,1.63,0,2.91-.25,3.85-.76.94-.51,1.41-1.2,1.41-2.06,0-.77-.29-1.5-.86-2.2-.32-.32-.73-.57-1.24-.77-.57-.25-1.08-.46-1.53-.62l-2.1-.72c-2.14-.77-3.95-1.58-5.45-2.44-1.47-.86-2.57-1.91-3.32-3.16s-1.19-2.84-1.31-4.78c0-3.32,1.2-5.9,3.59-7.75,2.39-1.85,5.71-2.77,9.95-2.77,2.01,0,4.02.32,6.05.96,2.02.64,3.71,1.5,5.04,2.58.03,1.66-.33,3.02-1.08,4.09-.75,1.07-1.78,1.62-3.08,1.65-2.04-1.27-4.29-1.91-6.74-1.91-1.18,0-2.11.21-2.8.62-.69.41-1.03.99-1.03,1.72,0,.8.33,1.39.98,1.79.65.4,2.03.95,4.14,1.65l2.92.96c.8.26,1.72.69,2.77,1.29,1.24.67,2.13,1.32,2.68,1.96,1.59,1.72,2.39,3.97,2.39,6.74,0,3.6-1.23,6.36-3.68,8.27-2.46,1.91-5.99,2.87-10.62,2.87Z"></path><path class="cls-3" d="m180.15,311.03c.35.45.53,1.16.53,2.15,0,1.56-.65,2.85-1.96,3.87-1.69-.03-3.12-.39-4.28-1.08-1.16-.69-1.92-1.6-2.27-2.75-1.88,2.55-4.54,3.83-7.99,3.83-2.58,0-4.61-.73-6.1-2.18s-2.22-3.43-2.22-5.95,1.04-4.52,3.11-6c2.07-1.48,4.86-2.22,8.37-2.22h2.77v-1.43c0-2.14-1.39-3.2-4.16-3.2-1.95,0-3.97.45-6.07,1.34-1.4-1.02-2.1-2.37-2.1-4.06,0-.73.14-1.45.43-2.15,2.93-1.37,6.06-2.06,9.37-2.06,3.73,0,6.58.76,8.54,2.27,1.96,1.51,2.94,3.72,2.94,6.62v11.33c0,1.05.37,1.61,1.1,1.67Zm-10.04-2.15v-3.78l-1.24-.05c-1.28,0-2.26.26-2.96.79-.7.53-1.05,1.27-1.05,2.22,0,.8.2,1.42.6,1.86.4.45.95.67,1.65.67,1.24,0,2.25-.57,3.01-1.72Z"></path><path class="cls-3" d="m199.71,289.18c2.17,0,3.91.73,5.24,2.2,1.32,1.47,1.98,3.38,1.98,5.74v18.12c-1.12.61-2.68.91-4.69.91-1.88,0-3.38-.3-4.49-.91v-16.54c0-1.59-.62-2.39-1.87-2.39-1.31,0-2.34.85-3.11,2.53v16.4c-1.12.61-2.68.91-4.69.91-1.88,0-3.38-.3-4.5-.91v-24.24c1.08-.61,2.47-.91,4.16-.91s2.93.3,3.92.91l.81,2.25c.76-1.21,1.81-2.19,3.13-2.94,1.32-.75,2.68-1.12,4.09-1.12Z"></path><path class="cls-3" d="m225.96,316.15c-1.66,0-3.08-.3-4.26-.91v-31.94c1.56-.64,3.59-.96,6.07-.96s4.41.32,5.98.96l4.4,19.99,4.26-19.99c1.56-.64,3.55-.96,5.98-.96s4.51.32,6.07.96v31.94c-1.18.61-2.6.91-4.25.91-1.56,0-2.96-.3-4.21-.91v-10.04c.03-4.37.27-8.4.72-12.1h-.14l-4.35,19.6c-1.47.64-2.85.96-4.16.96-1.37,0-2.73-.32-4.06-.96l-4.4-19.6h-.14c.45,3.7.69,7.73.72,12.1v10.04c-1.24.61-2.65.91-4.21.91Z"></path><path class="cls-3" d="m263.44,286.65c-1.56,0-2.81-.47-3.75-1.41-.94-.94-1.41-2.16-1.41-3.66s.47-2.72,1.41-3.66c.94-.94,2.19-1.41,3.75-1.41s2.77.47,3.73,1.41c.96.94,1.43,2.16,1.43,3.66s-.48,2.72-1.43,3.66c-.96.94-2.2,1.41-3.73,1.41Zm-4.59,28.59v-24.24c1.02-.61,2.55-.91,4.59-.91s3.57.3,4.59.91v24.24c-1.12.61-2.65.91-4.59.91s-3.47-.3-4.59-.91Z"></path><path class="cls-3" d="m298.4,293.05c0,1.34-.35,2.46-1.05,3.35h-4.11c1.12.73,1.67,2.01,1.67,3.83,0,2.52-1.05,4.56-3.16,6.12-2.1,1.53-4.86,2.3-8.27,2.3-.92,0-1.66-.06-2.2-.19-.32.32-.48.69-.48,1.1,0,.77.81,1.15,2.44,1.15h4.26c2.96,0,5.33.73,7.1,2.18,1.77,1.45,2.65,3.37,2.65,5.76,0,2.8-1.26,5.04-3.78,6.69-2.55,1.69-5.88,2.53-9.99,2.53-3.67,0-6.63-.67-8.89-2.01-2.23-1.28-3.35-3-3.35-5.16s1.12-4.08,3.35-5.55c-.96-.86-1.43-2.02-1.43-3.49,0-1.98,1.05-3.6,3.16-4.88-3.03-1.78-4.54-4.4-4.54-7.84,0-2.93,1.08-5.29,3.25-7.08,2.17-1.78,4.99-2.68,8.46-2.68,2.65,0,4.84.48,6.6,1.43,1.63-.86,3.16-1.29,4.59-1.29.86,0,1.82.18,2.87.53.57.89.86,1.96.86,3.2Zm-12.86,23.86h-5.64c-.86.45-1.29,1.12-1.29,2.01,0,1.66,1.5,2.49,4.49,2.49,1.5,0,2.69-.22,3.59-.65s1.34-1,1.34-1.7-.21-1.2-.65-1.58c-.43-.38-1.04-.57-1.84-.57Zm1.24-17.98c0-2.52-1-3.78-3.01-3.78-.96,0-1.71.33-2.25,1s-.81,1.59-.81,2.77.27,2.1.81,2.75c.54.65,1.29.98,2.25.98s1.7-.33,2.22-.98c.53-.65.79-1.57.79-2.75Z"></path><path class="cls-3" d="m318.38,290.09c1.94,0,3.46.3,4.54.91v24.24c-1.18.61-2.58.91-4.21.91s-2.85-.3-3.87-.91l-.72-2.01c-.8,1.15-1.84,2.07-3.13,2.77-1.29.7-2.59,1.05-3.9,1.05-2.2,0-3.95-.73-5.26-2.18-1.31-1.45-1.96-3.37-1.96-5.76v-18.12c1.02-.61,2.58-.91,4.69-.91,1.98,0,3.47.3,4.5.91v16.5c0,1.66.62,2.49,1.86,2.49,1.12,0,2.04-.67,2.77-2.01v-16.97c1.08-.61,2.65-.91,4.69-.91Z"></path><path class="cls-3" d="m350.99,305.96h-15.44c.73,2.77,2.66,4.16,5.79,4.16,1.78,0,3.57-.46,5.36-1.39,2.68.51,3.63,2.26,2.87,5.26-1.15.92-2.64,1.67-4.47,2.22s-3.71.84-5.62.84c-4.11,0-7.35-1.24-9.71-3.73-2.33-2.45-3.49-5.86-3.49-10.23s1.16-7.78,3.49-10.23c2.36-2.49,5.59-3.73,9.71-3.73,3.73,0,6.65,1.16,8.75,3.47,2.1,2.31,3.16,5.52,3.16,9.63,0,1.12-.13,2.36-.38,3.73Zm-15.59-5.36h7.12c-.03-1.63-.34-2.88-.93-3.75-.59-.88-1.39-1.31-2.42-1.31-2.14,0-3.39,1.69-3.78,5.07Z"></path><path class="cls-3" d="m365.62,309.65c1.02.86,1.53,2.14,1.53,3.83,0,.61-.11,1.12-.33,1.53-1.28,1.37-3.06,2.06-5.36,2.06-2.14,0-3.86-.7-5.16-2.1-1.31-1.4-1.96-3.25-1.96-5.55v-28.07c1.12-.64,2.65-.96,4.59-.96s3.47.32,4.59.96v27.16c0,.93.38,1.39,1.15,1.39.25,0,.57-.08.96-.24Z"></path></svg>